{
    "asset" : {
        "generator" : "Khronos glTF Blender I/O v1.5.17",
        "version" : "2.0"
    },
    "scene" : 0,
    "scenes" : [
        {
            "name" : "Scene",
            "nodes" : [
                0
            ]
        }
    ],
    "nodes" : [
        {
            "mesh" : 0,
            "name" : "Box036",
            "scale" : [
                0.9999977946281433,
                1,
                1
            ]
        }
    ],
    "materials" : [
        {
            "doubleSided" : true,
            "name" : "Material #27.004",
            "pbrMetallicRoughness" : {
                "baseColorFactor" : [
                    0,
                    0,
                    0,
                    1
                ],
                "metallicFactor" : 0,
                "roughnessFactor" : 0.5527864098548889
            }
        }
    ],
    "meshes" : [
        {
            "name" : "Mesh.004",
            "primitives" : [
                {
                    "attributes" : {
                        "POSITION" : 0,
                        "NORMAL" : 1,
                        "TEXCOORD_0" : 2
                    },
                    "indices" : 3,
                    "material" : 0
                }
            ]
        }
    ],
    "accessors" : [
        {
            "bufferView" : 0,
            "componentType" : 5126,
            "count" : 13167,
            "max" : [
                0.4611560106277466,
                0.2917397618293762,
                0.06918781250715256
            ],
            "min" : [
                -0.44743412733078003,
                -0.3055574595928192,
                -0.06966038793325424
            ],
            "type" : "VEC3"
        },
        {
            "bufferView" : 1,
            "componentType" : 5126,
            "count" : 13167,
            "type" : "VEC3"
        },
        {
            "bufferView" : 2,
            "componentType" : 5126,
            "count" : 13167,
            "type" : "VEC2"
        },
        {
            "bufferView" : 3,
            "componentType" : 5123,
            "count" : 75264,
            "type" : "SCALAR"
        }
    ],
    "bufferViews" : [
        {
            "buffer" : 0,
            "byteLength" : 158004,
            "byteOffset" : 0
        },
        {
            "buffer" : 0,
            "byteLength" : 158004,
            "byteOffset" : 158004
        },
        {
            "buffer" : 0,
            "byteLength" : 105336,
            "byteOffset" : 316008
        },
        {
            "buffer" : 0,
            "byteLength" : 150528,
            "byteOffset" : 421344
        }
    ],
    "buffers" : [
        {
            "byteLength" : 571872,
            "uri" : "data:application/octet-stream;base64,"
        }
    ]
}
