{
    "asset" : {
        "generator" : "Khronos glTF Blender I/O v1.5.17",
        "version" : "2.0"
    },
    "scene" : 0,
    "scenes" : [
        {
            "name" : "Scene",
            "nodes" : [
                0
            ]
        }
    ],
    "nodes" : [
        {
            "mesh" : 0,
            "name" : "Torus128"
        }
    ],
    "materials" : [
        {
            "doubleSided" : true,
            "name" : "Material #27",
            "pbrMetallicRoughness" : {
                "baseColorFactor" : [
                    0,
                    0,
                    0,
                    1
                ],
                "metallicFactor" : 0,
                "roughnessFactor" : 0.5527864098548889
            }
        }
    ],
    "meshes" : [
        {
            "name" : "Mesh",
            "primitives" : [
                {
                    "attributes" : {
                        "POSITION" : 0,
                        "NORMAL" : 1
                    },
                    "indices" : 2,
                    "material" : 0
                }
            ]
        }
    ],
    "accessors" : [
        {
            "bufferView" : 0,
            "componentType" : 5126,
            "count" : 1902,
            "max" : [
                2.457057476043701,
                0.7456676363945007,
                2.789900779724121
            ],
            "min" : [
                -1.4849481582641602,
                -0.5647099018096924,
                -3.2091457843780518
            ],
            "type" : "VEC3"
        },
        {
            "bufferView" : 1,
            "componentType" : 5126,
            "count" : 1902,
            "type" : "VEC3"
        },
        {
            "bufferView" : 2,
            "componentType" : 5123,
            "count" : 11412,
            "type" : "SCALAR"
        }
    ],
    "bufferViews" : [
        {
            "buffer" : 0,
            "byteLength" : 22824,
            "byteOffset" : 0
        },
        {
            "buffer" : 0,
            "byteLength" : 22824,
            "byteOffset" : 22824
        },
        {
            "buffer" : 0,
            "byteLength" : 22824,
            "byteOffset" : 45648
        }
    ],
    "buffers" : [
        {
            "byteLength" : 68472,
            "uri" : "data:application/octet-stream;base64,"
        }
    ]
}
